<mxfile host="app.diagrams.net" modified="2024-06-05T17:45:12.346Z" agent="Mozilla/5.0 (Windows NT 10.0; Win64; x64) AppleWebKit/537.36 (KHTML, like Gecko) Chrome/125.0.0.0 Safari/537.36" etag="W0BJzpUhWhAKtSCvBPSX" version="24.4.14" type="github">
  <diagram id="C5RBs43oDa-KdzZeNtuy" name="Page-1">
    <mxGraphModel dx="2274" dy="585" grid="1" gridSize="10" guides="1" tooltips="1" connect="1" arrows="1" fold="1" page="1" pageScale="1" pageWidth="1169" pageHeight="1654" math="0" shadow="0">
      <root>
        <mxCell id="WIyWlLk6GJQsqaUBKTNV-0" />
        <mxCell id="WIyWlLk6GJQsqaUBKTNV-1" parent="WIyWlLk6GJQsqaUBKTNV-0" />
        <mxCell id="tmJ_A6NvHQKnJ2QSPhdl-1" value="User" style="swimlane;fontStyle=1;align=center;verticalAlign=top;childLayout=stackLayout;horizontal=1;startSize=40;horizontalStack=0;resizeParent=1;resizeParentMax=0;resizeLast=0;collapsible=1;marginBottom=0;whiteSpace=wrap;html=1;fontFamily=Lucida Console;fontSize=12;labelBorderColor=none;fontColor=#143642;labelBackgroundColor=none;fillColor=#FAE5C7;strokeColor=#0F8B8D;" vertex="1" parent="WIyWlLk6GJQsqaUBKTNV-1">
          <mxGeometry x="-1120" y="40" width="160" height="180" as="geometry" />
        </mxCell>
        <mxCell id="tmJ_A6NvHQKnJ2QSPhdl-2" value="+ name: string" style="text;strokeColor=none;fillColor=none;align=left;verticalAlign=middle;spacingLeft=4;spacingRight=4;overflow=hidden;rotatable=0;points=[[0,0.5],[1,0.5]];portConstraint=eastwest;whiteSpace=wrap;html=1;fontFamily=Lucida Console;fontSize=12;labelBorderColor=none;fontColor=#143642;labelBackgroundColor=none;" vertex="1" parent="tmJ_A6NvHQKnJ2QSPhdl-1">
          <mxGeometry y="40" width="160" height="30" as="geometry" />
        </mxCell>
        <mxCell id="tmJ_A6NvHQKnJ2QSPhdl-26" value="+ email: string" style="text;strokeColor=none;fillColor=none;align=left;verticalAlign=middle;spacingLeft=4;spacingRight=4;overflow=hidden;rotatable=0;points=[[0,0.5],[1,0.5]];portConstraint=eastwest;whiteSpace=wrap;html=1;fontFamily=Lucida Console;fontSize=12;labelBorderColor=none;fontColor=#143642;labelBackgroundColor=none;" vertex="1" parent="tmJ_A6NvHQKnJ2QSPhdl-1">
          <mxGeometry y="70" width="160" height="20" as="geometry" />
        </mxCell>
        <mxCell id="tmJ_A6NvHQKnJ2QSPhdl-25" value="+ password: string" style="text;strokeColor=none;fillColor=none;align=left;verticalAlign=middle;spacingLeft=4;spacingRight=4;overflow=hidden;rotatable=0;points=[[0,0.5],[1,0.5]];portConstraint=eastwest;whiteSpace=wrap;html=1;fontFamily=Lucida Console;fontSize=12;labelBorderColor=none;fontColor=#143642;labelBackgroundColor=none;" vertex="1" parent="tmJ_A6NvHQKnJ2QSPhdl-1">
          <mxGeometry y="90" width="160" height="26" as="geometry" />
        </mxCell>
        <mxCell id="tmJ_A6NvHQKnJ2QSPhdl-3" value="" style="line;strokeWidth=1;fillColor=none;align=left;verticalAlign=middle;spacingTop=-1;spacingLeft=3;spacingRight=3;rotatable=0;labelPosition=right;points=[];portConstraint=eastwest;strokeColor=#0F8B8D;fontFamily=Lucida Console;fontSize=12;labelBorderColor=none;fontColor=#143642;labelBackgroundColor=none;" vertex="1" parent="tmJ_A6NvHQKnJ2QSPhdl-1">
          <mxGeometry y="116" width="160" height="8" as="geometry" />
        </mxCell>
        <mxCell id="tmJ_A6NvHQKnJ2QSPhdl-4" value="+ method(type): type" style="text;strokeColor=none;fillColor=none;align=left;verticalAlign=top;spacingLeft=4;spacingRight=4;overflow=hidden;rotatable=0;points=[[0,0.5],[1,0.5]];portConstraint=eastwest;whiteSpace=wrap;html=1;fontFamily=Lucida Console;fontSize=12;labelBorderColor=none;fontColor=#143642;labelBackgroundColor=none;" vertex="1" parent="tmJ_A6NvHQKnJ2QSPhdl-1">
          <mxGeometry y="124" width="160" height="56" as="geometry" />
        </mxCell>
        <mxCell id="tmJ_A6NvHQKnJ2QSPhdl-9" value="Ready Dish" style="swimlane;fontStyle=1;align=center;verticalAlign=top;childLayout=stackLayout;horizontal=1;startSize=30;horizontalStack=0;resizeParent=1;resizeParentMax=0;resizeLast=0;collapsible=1;marginBottom=0;whiteSpace=wrap;html=1;fontFamily=Lucida Console;fontSize=12;labelBorderColor=none;fillColor=#FAE5C7;strokeColor=#0F8B8D;labelBackgroundColor=none;fontColor=#143642;" vertex="1" parent="WIyWlLk6GJQsqaUBKTNV-1">
          <mxGeometry x="-800" y="40" width="200" height="250" as="geometry">
            <mxRectangle x="-400" y="40" width="150" height="40" as="alternateBounds" />
          </mxGeometry>
        </mxCell>
        <mxCell id="tmJ_A6NvHQKnJ2QSPhdl-10" value="+ type: string" style="text;strokeColor=none;fillColor=none;align=left;verticalAlign=top;spacingLeft=4;spacingRight=4;overflow=hidden;rotatable=0;points=[[0,0.5],[1,0.5]];portConstraint=eastwest;whiteSpace=wrap;html=1;fontFamily=Lucida Console;fontSize=12;labelBorderColor=none;fontColor=#143642;labelBackgroundColor=none;" vertex="1" parent="tmJ_A6NvHQKnJ2QSPhdl-9">
          <mxGeometry y="30" width="200" height="26" as="geometry" />
        </mxCell>
        <mxCell id="tmJ_A6NvHQKnJ2QSPhdl-67" value="&lt;span style=&quot;font-family: &amp;quot;Lucida Console&amp;quot;;&quot;&gt;+ dish name: string&lt;/span&gt;" style="text;strokeColor=none;fillColor=none;align=left;verticalAlign=top;spacingLeft=4;spacingRight=4;overflow=hidden;rotatable=0;points=[[0,0.5],[1,0.5]];portConstraint=eastwest;whiteSpace=wrap;html=1;fontColor=#143642;" vertex="1" parent="tmJ_A6NvHQKnJ2QSPhdl-9">
          <mxGeometry y="56" width="200" height="26" as="geometry" />
        </mxCell>
        <mxCell id="tmJ_A6NvHQKnJ2QSPhdl-27" value="+ manufacturer: string" style="text;strokeColor=none;fillColor=none;align=left;verticalAlign=top;spacingLeft=4;spacingRight=4;overflow=hidden;rotatable=0;points=[[0,0.5],[1,0.5]];portConstraint=eastwest;whiteSpace=wrap;html=1;fontFamily=Lucida Console;fontSize=12;labelBorderColor=none;fontColor=#143642;labelBackgroundColor=none;" vertex="1" parent="tmJ_A6NvHQKnJ2QSPhdl-9">
          <mxGeometry y="82" width="200" height="28" as="geometry" />
        </mxCell>
        <mxCell id="tmJ_A6NvHQKnJ2QSPhdl-28" value="+ portion: number" style="text;strokeColor=none;fillColor=none;align=left;verticalAlign=top;spacingLeft=4;spacingRight=4;overflow=hidden;rotatable=0;points=[[0,0.5],[1,0.5]];portConstraint=eastwest;whiteSpace=wrap;html=1;fontFamily=Lucida Console;fontSize=12;labelBorderColor=none;fontColor=#143642;labelBackgroundColor=none;" vertex="1" parent="tmJ_A6NvHQKnJ2QSPhdl-9">
          <mxGeometry y="110" width="200" height="30" as="geometry" />
        </mxCell>
        <mxCell id="tmJ_A6NvHQKnJ2QSPhdl-68" value="+&amp;nbsp;&lt;span style=&quot;background-color: rgb(255, 255, 255); font-size: 12px; white-space: pre;&quot;&gt;calories&lt;/span&gt;&lt;span style=&quot;background-color: initial; font-size: 12px;&quot;&gt;:&amp;nbsp;&lt;/span&gt;number" style="text;strokeColor=none;fillColor=none;align=left;verticalAlign=top;spacingLeft=4;spacingRight=4;overflow=hidden;rotatable=0;points=[[0,0.5],[1,0.5]];portConstraint=eastwest;whiteSpace=wrap;html=1;fontFamily=Lucida Console;fontSize=12;labelBorderColor=none;fontColor=#143642;labelBackgroundColor=none;" vertex="1" parent="tmJ_A6NvHQKnJ2QSPhdl-9">
          <mxGeometry y="140" width="200" height="26" as="geometry" />
        </mxCell>
        <mxCell id="tmJ_A6NvHQKnJ2QSPhdl-69" value="+&amp;nbsp;&lt;span style=&quot;background-color: rgb(255, 255, 255); font-size: 12px; white-space: pre;&quot;&gt;protein&lt;/span&gt;&lt;span style=&quot;background-color: initial; font-size: 12px;&quot;&gt;:&amp;nbsp;&lt;/span&gt;number" style="text;strokeColor=none;fillColor=none;align=left;verticalAlign=top;spacingLeft=4;spacingRight=4;overflow=hidden;rotatable=0;points=[[0,0.5],[1,0.5]];portConstraint=eastwest;whiteSpace=wrap;html=1;fontFamily=Lucida Console;fontSize=12;labelBorderColor=none;fontColor=#143642;labelBackgroundColor=none;" vertex="1" parent="tmJ_A6NvHQKnJ2QSPhdl-9">
          <mxGeometry y="166" width="200" height="26" as="geometry" />
        </mxCell>
        <mxCell id="tmJ_A6NvHQKnJ2QSPhdl-71" value="+&amp;nbsp;&lt;span style=&quot;background-color: rgb(255, 255, 255); font-size: 12px; white-space: pre;&quot;&gt;fat&lt;/span&gt;&lt;span style=&quot;background-color: initial; font-size: 12px;&quot;&gt;:&amp;nbsp;&lt;/span&gt;number" style="text;strokeColor=none;fillColor=none;align=left;verticalAlign=top;spacingLeft=4;spacingRight=4;overflow=hidden;rotatable=0;points=[[0,0.5],[1,0.5]];portConstraint=eastwest;whiteSpace=wrap;html=1;fontFamily=Lucida Console;fontSize=12;labelBorderColor=none;fontColor=#143642;labelBackgroundColor=none;" vertex="1" parent="tmJ_A6NvHQKnJ2QSPhdl-9">
          <mxGeometry y="192" width="200" height="26" as="geometry" />
        </mxCell>
        <mxCell id="tmJ_A6NvHQKnJ2QSPhdl-70" value="+&amp;nbsp;&lt;span style=&quot;background-color: rgb(255, 255, 255); font-size: 12px; white-space: pre;&quot;&gt;carbohydrates&lt;/span&gt;&lt;span style=&quot;background-color: initial; font-size: 12px;&quot;&gt;:&amp;nbsp;&lt;/span&gt;number" style="text;strokeColor=none;fillColor=none;align=left;verticalAlign=top;spacingLeft=4;spacingRight=4;overflow=hidden;rotatable=0;points=[[0,0.5],[1,0.5]];portConstraint=eastwest;whiteSpace=wrap;html=1;fontFamily=Lucida Console;fontSize=12;labelBorderColor=none;fontColor=#143642;labelBackgroundColor=none;" vertex="1" parent="tmJ_A6NvHQKnJ2QSPhdl-9">
          <mxGeometry y="218" width="200" height="32" as="geometry" />
        </mxCell>
        <mxCell id="tmJ_A6NvHQKnJ2QSPhdl-13" value="Meal (Прийом їжі) " style="swimlane;fontStyle=1;childLayout=stackLayout;horizontal=1;startSize=40;fillColor=none;horizontalStack=0;resizeParent=1;resizeParentMax=0;resizeLast=0;collapsible=1;marginBottom=0;whiteSpace=wrap;html=1;fontFamily=Lucida Console;fontSize=12;labelBorderColor=none;fontColor=#143642;labelBackgroundColor=none;strokeColor=#0F8B8D;" vertex="1" collapsed="1" parent="WIyWlLk6GJQsqaUBKTNV-1">
          <mxGeometry x="840" y="160" width="160" height="40" as="geometry">
            <mxRectangle x="640" y="80" width="120" height="118" as="alternateBounds" />
          </mxGeometry>
        </mxCell>
        <mxCell id="tmJ_A6NvHQKnJ2QSPhdl-14" value="+ field: type" style="text;strokeColor=none;fillColor=none;align=left;verticalAlign=top;spacingLeft=4;spacingRight=4;overflow=hidden;rotatable=0;points=[[0,0.5],[1,0.5]];portConstraint=eastwest;whiteSpace=wrap;html=1;labelBackgroundColor=none;fontColor=#143642;" vertex="1" parent="tmJ_A6NvHQKnJ2QSPhdl-13">
          <mxGeometry y="40" width="120" height="26" as="geometry" />
        </mxCell>
        <mxCell id="tmJ_A6NvHQKnJ2QSPhdl-15" value="+ field: type" style="text;strokeColor=none;fillColor=none;align=left;verticalAlign=top;spacingLeft=4;spacingRight=4;overflow=hidden;rotatable=0;points=[[0,0.5],[1,0.5]];portConstraint=eastwest;whiteSpace=wrap;html=1;labelBackgroundColor=none;fontColor=#143642;" vertex="1" parent="tmJ_A6NvHQKnJ2QSPhdl-13">
          <mxGeometry y="66" width="120" height="26" as="geometry" />
        </mxCell>
        <mxCell id="tmJ_A6NvHQKnJ2QSPhdl-16" value="+ field: type" style="text;strokeColor=none;fillColor=none;align=left;verticalAlign=top;spacingLeft=4;spacingRight=4;overflow=hidden;rotatable=0;points=[[0,0.5],[1,0.5]];portConstraint=eastwest;whiteSpace=wrap;html=1;labelBackgroundColor=none;fontColor=#143642;" vertex="1" parent="tmJ_A6NvHQKnJ2QSPhdl-13">
          <mxGeometry y="92" width="120" height="26" as="geometry" />
        </mxCell>
        <mxCell id="tmJ_A6NvHQKnJ2QSPhdl-17" value="Menu(План харчування)" style="swimlane;fontStyle=1;childLayout=stackLayout;horizontal=1;startSize=40;fillColor=none;horizontalStack=0;resizeParent=1;resizeParentMax=0;resizeLast=0;collapsible=1;marginBottom=0;whiteSpace=wrap;html=1;fontFamily=Lucida Console;fontSize=12;labelBorderColor=none;fontColor=#143642;labelBackgroundColor=none;strokeColor=#0F8B8D;" vertex="1" collapsed="1" parent="WIyWlLk6GJQsqaUBKTNV-1">
          <mxGeometry x="830" y="80" width="170" height="40" as="geometry">
            <mxRectangle x="690" y="80" width="120" height="118" as="alternateBounds" />
          </mxGeometry>
        </mxCell>
        <mxCell id="tmJ_A6NvHQKnJ2QSPhdl-18" value="+ field: type" style="text;strokeColor=none;fillColor=none;align=left;verticalAlign=top;spacingLeft=4;spacingRight=4;overflow=hidden;rotatable=0;points=[[0,0.5],[1,0.5]];portConstraint=eastwest;whiteSpace=wrap;html=1;labelBackgroundColor=none;fontColor=#143642;" vertex="1" parent="tmJ_A6NvHQKnJ2QSPhdl-17">
          <mxGeometry y="40" width="120" height="26" as="geometry" />
        </mxCell>
        <mxCell id="tmJ_A6NvHQKnJ2QSPhdl-19" value="+ field: type" style="text;strokeColor=none;fillColor=none;align=left;verticalAlign=top;spacingLeft=4;spacingRight=4;overflow=hidden;rotatable=0;points=[[0,0.5],[1,0.5]];portConstraint=eastwest;whiteSpace=wrap;html=1;labelBackgroundColor=none;fontColor=#143642;" vertex="1" parent="tmJ_A6NvHQKnJ2QSPhdl-17">
          <mxGeometry y="66" width="120" height="26" as="geometry" />
        </mxCell>
        <mxCell id="tmJ_A6NvHQKnJ2QSPhdl-20" value="+ field: type" style="text;strokeColor=none;fillColor=none;align=left;verticalAlign=top;spacingLeft=4;spacingRight=4;overflow=hidden;rotatable=0;points=[[0,0.5],[1,0.5]];portConstraint=eastwest;whiteSpace=wrap;html=1;labelBackgroundColor=none;fontColor=#143642;" vertex="1" parent="tmJ_A6NvHQKnJ2QSPhdl-17">
          <mxGeometry y="92" width="120" height="26" as="geometry" />
        </mxCell>
        <mxCell id="tmJ_A6NvHQKnJ2QSPhdl-21" value="ShoppingList " style="swimlane;fontStyle=1;align=center;verticalAlign=top;childLayout=stackLayout;horizontal=1;startSize=40;horizontalStack=0;resizeParent=1;resizeParentMax=0;resizeLast=0;collapsible=1;marginBottom=0;whiteSpace=wrap;html=1;fontFamily=Lucida Console;fontSize=12;labelBorderColor=none;fontColor=#143642;labelBackgroundColor=none;fillColor=#FAE5C7;strokeColor=#0F8B8D;" vertex="1" collapsed="1" parent="WIyWlLk6GJQsqaUBKTNV-1">
          <mxGeometry x="1040" y="80" width="120" height="40" as="geometry">
            <mxRectangle x="840" y="80" width="120" height="100" as="alternateBounds" />
          </mxGeometry>
        </mxCell>
        <mxCell id="tmJ_A6NvHQKnJ2QSPhdl-22" value="+ field: type" style="text;strokeColor=none;fillColor=none;align=left;verticalAlign=top;spacingLeft=4;spacingRight=4;overflow=hidden;rotatable=0;points=[[0,0.5],[1,0.5]];portConstraint=eastwest;whiteSpace=wrap;html=1;labelBackgroundColor=none;fontColor=#143642;" vertex="1" parent="tmJ_A6NvHQKnJ2QSPhdl-21">
          <mxGeometry y="40" width="120" height="26" as="geometry" />
        </mxCell>
        <mxCell id="tmJ_A6NvHQKnJ2QSPhdl-23" value="" style="line;strokeWidth=1;fillColor=none;align=left;verticalAlign=middle;spacingTop=-1;spacingLeft=3;spacingRight=3;rotatable=0;labelPosition=right;points=[];portConstraint=eastwest;strokeColor=#0F8B8D;labelBackgroundColor=none;fontColor=#143642;" vertex="1" parent="tmJ_A6NvHQKnJ2QSPhdl-21">
          <mxGeometry y="66" width="120" height="8" as="geometry" />
        </mxCell>
        <mxCell id="tmJ_A6NvHQKnJ2QSPhdl-24" value="+ method(type): type" style="text;strokeColor=none;fillColor=none;align=left;verticalAlign=top;spacingLeft=4;spacingRight=4;overflow=hidden;rotatable=0;points=[[0,0.5],[1,0.5]];portConstraint=eastwest;whiteSpace=wrap;html=1;labelBackgroundColor=none;fontColor=#143642;" vertex="1" parent="tmJ_A6NvHQKnJ2QSPhdl-21">
          <mxGeometry y="74" width="120" height="26" as="geometry" />
        </mxCell>
        <mxCell id="tmJ_A6NvHQKnJ2QSPhdl-61" value="Dish" style="swimlane;fontStyle=1;align=center;verticalAlign=top;childLayout=stackLayout;horizontal=1;startSize=40;horizontalStack=0;resizeParent=1;resizeParentMax=0;resizeLast=0;collapsible=1;marginBottom=0;whiteSpace=wrap;html=1;fontFamily=Lucida Console;fontSize=12;labelBorderColor=none;fillColor=#FAE5C7;strokeColor=#0F8B8D;labelBackgroundColor=none;fontColor=#143642;" vertex="1" parent="WIyWlLk6GJQsqaUBKTNV-1">
          <mxGeometry x="-800" y="320" width="200" height="294" as="geometry">
            <mxRectangle x="-400" y="40" width="150" height="40" as="alternateBounds" />
          </mxGeometry>
        </mxCell>
        <mxCell id="tmJ_A6NvHQKnJ2QSPhdl-72" value="+ type: string" style="text;strokeColor=none;fillColor=none;align=left;verticalAlign=top;spacingLeft=4;spacingRight=4;overflow=hidden;rotatable=0;points=[[0,0.5],[1,0.5]];portConstraint=eastwest;whiteSpace=wrap;html=1;fontFamily=Lucida Console;fontSize=12;labelBorderColor=none;fontColor=#143642;labelBackgroundColor=none;" vertex="1" parent="tmJ_A6NvHQKnJ2QSPhdl-61">
          <mxGeometry y="40" width="200" height="26" as="geometry" />
        </mxCell>
        <mxCell id="tmJ_A6NvHQKnJ2QSPhdl-62" value="+ dish name: string" style="text;strokeColor=none;fillColor=none;align=left;verticalAlign=top;spacingLeft=4;spacingRight=4;overflow=hidden;rotatable=0;points=[[0,0.5],[1,0.5]];portConstraint=eastwest;whiteSpace=wrap;html=1;fontFamily=Lucida Console;fontSize=12;labelBorderColor=none;fontColor=#143642;labelBackgroundColor=none;" vertex="1" parent="tmJ_A6NvHQKnJ2QSPhdl-61">
          <mxGeometry y="66" width="200" height="26" as="geometry" />
        </mxCell>
        <mxCell id="tmJ_A6NvHQKnJ2QSPhdl-63" value="+ portion: number" style="text;strokeColor=none;fillColor=none;align=left;verticalAlign=top;spacingLeft=4;spacingRight=4;overflow=hidden;rotatable=0;points=[[0,0.5],[1,0.5]];portConstraint=eastwest;whiteSpace=wrap;html=1;fontFamily=Lucida Console;fontSize=12;labelBorderColor=none;fontColor=#143642;labelBackgroundColor=none;" vertex="1" parent="tmJ_A6NvHQKnJ2QSPhdl-61">
          <mxGeometry y="92" width="200" height="28" as="geometry" />
        </mxCell>
        <mxCell id="tmJ_A6NvHQKnJ2QSPhdl-73" value="+&amp;nbsp;&lt;span style=&quot;background-color: rgb(255, 255, 255); font-size: 12px; white-space: pre;&quot;&gt;calories&lt;/span&gt;&lt;span style=&quot;background-color: initial; font-size: 12px;&quot;&gt;:&amp;nbsp;&lt;/span&gt;number" style="text;strokeColor=none;fillColor=none;align=left;verticalAlign=top;spacingLeft=4;spacingRight=4;overflow=hidden;rotatable=0;points=[[0,0.5],[1,0.5]];portConstraint=eastwest;whiteSpace=wrap;html=1;fontFamily=Lucida Console;fontSize=12;labelBorderColor=none;fontColor=#143642;labelBackgroundColor=none;" vertex="1" parent="tmJ_A6NvHQKnJ2QSPhdl-61">
          <mxGeometry y="120" width="200" height="26" as="geometry" />
        </mxCell>
        <mxCell id="tmJ_A6NvHQKnJ2QSPhdl-74" value="+&amp;nbsp;&lt;span style=&quot;background-color: rgb(255, 255, 255); font-size: 12px; white-space: pre;&quot;&gt;protein&lt;/span&gt;&lt;span style=&quot;background-color: initial; font-size: 12px;&quot;&gt;:&amp;nbsp;&lt;/span&gt;number" style="text;strokeColor=none;fillColor=none;align=left;verticalAlign=top;spacingLeft=4;spacingRight=4;overflow=hidden;rotatable=0;points=[[0,0.5],[1,0.5]];portConstraint=eastwest;whiteSpace=wrap;html=1;fontFamily=Lucida Console;fontSize=12;labelBorderColor=none;fontColor=#143642;labelBackgroundColor=none;" vertex="1" parent="tmJ_A6NvHQKnJ2QSPhdl-61">
          <mxGeometry y="146" width="200" height="26" as="geometry" />
        </mxCell>
        <mxCell id="tmJ_A6NvHQKnJ2QSPhdl-75" value="+&amp;nbsp;&lt;span style=&quot;background-color: rgb(255, 255, 255); font-size: 12px; white-space: pre;&quot;&gt;fat&lt;/span&gt;&lt;span style=&quot;background-color: initial; font-size: 12px;&quot;&gt;:&amp;nbsp;&lt;/span&gt;number" style="text;strokeColor=none;fillColor=none;align=left;verticalAlign=top;spacingLeft=4;spacingRight=4;overflow=hidden;rotatable=0;points=[[0,0.5],[1,0.5]];portConstraint=eastwest;whiteSpace=wrap;html=1;fontFamily=Lucida Console;fontSize=12;labelBorderColor=none;fontColor=#143642;labelBackgroundColor=none;" vertex="1" parent="tmJ_A6NvHQKnJ2QSPhdl-61">
          <mxGeometry y="172" width="200" height="26" as="geometry" />
        </mxCell>
        <mxCell id="tmJ_A6NvHQKnJ2QSPhdl-76" value="+&amp;nbsp;&lt;span style=&quot;background-color: rgb(255, 255, 255); font-size: 12px; white-space: pre;&quot;&gt;carbohydrates&lt;/span&gt;&lt;span style=&quot;background-color: initial; font-size: 12px;&quot;&gt;:&amp;nbsp;&lt;/span&gt;number" style="text;strokeColor=none;fillColor=none;align=left;verticalAlign=top;spacingLeft=4;spacingRight=4;overflow=hidden;rotatable=0;points=[[0,0.5],[1,0.5]];portConstraint=eastwest;whiteSpace=wrap;html=1;fontFamily=Lucida Console;fontSize=12;labelBorderColor=none;fontColor=#143642;labelBackgroundColor=none;" vertex="1" parent="tmJ_A6NvHQKnJ2QSPhdl-61">
          <mxGeometry y="198" width="200" height="32" as="geometry" />
        </mxCell>
        <mxCell id="tmJ_A6NvHQKnJ2QSPhdl-64" value="+&amp;nbsp;&lt;span style=&quot;font-weight: 700; text-align: center;&quot;&gt;ProductCategory&lt;/span&gt;:&amp;nbsp;&lt;span style=&quot;font-weight: 700; text-align: center;&quot;&gt;Product&lt;/span&gt;" style="text;strokeColor=none;fillColor=none;align=left;verticalAlign=top;spacingLeft=4;spacingRight=4;overflow=hidden;rotatable=0;points=[[0,0.5],[1,0.5]];portConstraint=eastwest;whiteSpace=wrap;html=1;fontFamily=Lucida Console;fontSize=12;labelBorderColor=none;fontColor=#143642;labelBackgroundColor=none;" vertex="1" parent="tmJ_A6NvHQKnJ2QSPhdl-61">
          <mxGeometry y="230" width="200" height="30" as="geometry" />
        </mxCell>
        <mxCell id="tmJ_A6NvHQKnJ2QSPhdl-65" value="" style="line;strokeWidth=1;fillColor=none;align=left;verticalAlign=middle;spacingTop=-1;spacingLeft=3;spacingRight=3;rotatable=0;labelPosition=right;points=[];portConstraint=eastwest;strokeColor=#0F8B8D;fontFamily=Lucida Console;fontSize=12;labelBorderColor=none;fontColor=#143642;labelBackgroundColor=none;" vertex="1" parent="tmJ_A6NvHQKnJ2QSPhdl-61">
          <mxGeometry y="260" width="200" height="8" as="geometry" />
        </mxCell>
        <mxCell id="tmJ_A6NvHQKnJ2QSPhdl-66" value="+ change produt: type" style="text;strokeColor=none;fillColor=none;align=left;verticalAlign=top;spacingLeft=4;spacingRight=4;overflow=hidden;rotatable=0;points=[[0,0.5],[1,0.5]];portConstraint=eastwest;whiteSpace=wrap;html=1;fontFamily=Lucida Console;fontSize=12;labelBorderColor=none;fontColor=#143642;labelBackgroundColor=none;" vertex="1" parent="tmJ_A6NvHQKnJ2QSPhdl-61">
          <mxGeometry y="268" width="200" height="26" as="geometry" />
        </mxCell>
        <mxCell id="tmJ_A6NvHQKnJ2QSPhdl-60" value="" style="group;fillColor=#FAE5C7;strokeColor=#0F8B8D;rounded=0;glass=1;shadow=0;labelBackgroundColor=none;fontColor=#143642;" vertex="1" connectable="0" parent="WIyWlLk6GJQsqaUBKTNV-1">
          <mxGeometry x="-1120" y="560" width="240" height="390" as="geometry" />
        </mxCell>
        <mxCell id="tmJ_A6NvHQKnJ2QSPhdl-42" value="" style="endArrow=open;startArrow=circlePlus;endFill=0;startFill=0;endSize=8;html=1;rounded=0;fontFamily=Lucida Console;fontSize=12;labelBackgroundColor=none;strokeColor=#A8201A;fontColor=default;" edge="1" parent="tmJ_A6NvHQKnJ2QSPhdl-60">
          <mxGeometry width="160" relative="1" as="geometry">
            <mxPoint x="144" y="80" as="sourcePoint" />
            <mxPoint x="144" y="120" as="targetPoint" />
          </mxGeometry>
        </mxCell>
        <mxCell id="tmJ_A6NvHQKnJ2QSPhdl-51" value="Products" style="swimlane;fontStyle=1;childLayout=stackLayout;horizontal=1;startSize=26;fillColor=none;horizontalStack=0;resizeParent=1;resizeParentMax=0;resizeLast=0;collapsible=1;marginBottom=0;whiteSpace=wrap;html=1;fontFamily=Lucida Console;fontSize=12;labelBackgroundColor=none;strokeColor=#0F8B8D;fontColor=#143642;" vertex="1" parent="tmJ_A6NvHQKnJ2QSPhdl-60">
          <mxGeometry width="240" height="78" as="geometry" />
        </mxCell>
        <mxCell id="tmJ_A6NvHQKnJ2QSPhdl-52" value="&lt;span style=&quot;font-size: 12px;&quot;&gt;+&amp;nbsp;&lt;/span&gt;&lt;span style=&quot;font-weight: 700; text-align: center;&quot;&gt;ProductCategory name&lt;/span&gt;&lt;span style=&quot;font-size: 12px;&quot;&gt;: string&lt;/span&gt;" style="text;strokeColor=none;fillColor=none;align=left;verticalAlign=top;spacingLeft=4;spacingRight=4;overflow=hidden;rotatable=0;points=[[0,0.5],[1,0.5]];portConstraint=eastwest;whiteSpace=wrap;html=1;fontFamily=Lucida Console;fontSize=12;labelBackgroundColor=none;fontColor=#143642;" vertex="1" parent="tmJ_A6NvHQKnJ2QSPhdl-51">
          <mxGeometry y="26" width="240" height="26" as="geometry" />
        </mxCell>
        <mxCell id="tmJ_A6NvHQKnJ2QSPhdl-53" value="+&amp;nbsp;&lt;span style=&quot;font-weight: 700; text-align: center; font-size: 12px;&quot;&gt;ProductCategory&lt;/span&gt;:&amp;nbsp;&lt;span style=&quot;font-weight: 700; text-align: center; font-size: 12px;&quot;&gt;Product&lt;/span&gt;" style="text;strokeColor=none;fillColor=none;align=left;verticalAlign=top;spacingLeft=4;spacingRight=4;overflow=hidden;rotatable=0;points=[[0,0.5],[1,0.5]];portConstraint=eastwest;whiteSpace=wrap;html=1;fontFamily=Lucida Console;fontSize=12;labelBackgroundColor=none;fontColor=#143642;" vertex="1" parent="tmJ_A6NvHQKnJ2QSPhdl-51">
          <mxGeometry y="52" width="240" height="26" as="geometry" />
        </mxCell>
        <mxCell id="tmJ_A6NvHQKnJ2QSPhdl-56" value="&lt;span style=&quot;font-weight: 700; font-size: 12px;&quot;&gt;Product&lt;/span&gt;" style="swimlane;fontStyle=0;childLayout=stackLayout;horizontal=1;startSize=26;fillColor=none;horizontalStack=0;resizeParent=1;resizeParentMax=0;resizeLast=0;collapsible=1;marginBottom=0;whiteSpace=wrap;html=1;verticalAlign=middle;align=center;fontFamily=Lucida Console;fontSize=12;labelBackgroundColor=none;strokeColor=#0F8B8D;fontColor=#143642;" vertex="1" parent="tmJ_A6NvHQKnJ2QSPhdl-60">
          <mxGeometry y="120" width="240" height="188" as="geometry">
            <mxRectangle y="120" width="40" height="80" as="alternateBounds" />
          </mxGeometry>
        </mxCell>
        <mxCell id="tmJ_A6NvHQKnJ2QSPhdl-57" value="&lt;span style=&quot;font-size: 12px;&quot;&gt;+ name: string&lt;/span&gt;" style="text;strokeColor=none;fillColor=none;align=left;verticalAlign=top;spacingLeft=4;spacingRight=4;overflow=hidden;rotatable=0;points=[[0,0.5],[1,0.5]];portConstraint=eastwest;whiteSpace=wrap;html=1;fontFamily=Lucida Console;fontSize=12;labelBackgroundColor=none;fontColor=#143642;" vertex="1" parent="tmJ_A6NvHQKnJ2QSPhdl-56">
          <mxGeometry y="26" width="240" height="26" as="geometry" />
        </mxCell>
        <mxCell id="tmJ_A6NvHQKnJ2QSPhdl-58" value="&lt;span style=&quot;font-size: 12px;&quot;&gt;+ portion: number&lt;/span&gt;" style="text;strokeColor=none;fillColor=none;align=left;verticalAlign=top;spacingLeft=4;spacingRight=4;overflow=hidden;rotatable=0;points=[[0,0.5],[1,0.5]];portConstraint=eastwest;whiteSpace=wrap;html=1;fontFamily=Lucida Console;fontSize=12;labelBackgroundColor=none;fontColor=#143642;" vertex="1" parent="tmJ_A6NvHQKnJ2QSPhdl-56">
          <mxGeometry y="52" width="240" height="26" as="geometry" />
        </mxCell>
        <mxCell id="tmJ_A6NvHQKnJ2QSPhdl-91" value="+&amp;nbsp;&lt;span style=&quot;background-color: rgb(255, 255, 255); font-size: 12px; white-space: pre;&quot;&gt;calories&lt;/span&gt;&lt;span style=&quot;background-color: initial; font-size: 12px;&quot;&gt;:&amp;nbsp;&lt;/span&gt;number" style="text;strokeColor=none;fillColor=none;align=left;verticalAlign=top;spacingLeft=4;spacingRight=4;overflow=hidden;rotatable=0;points=[[0,0.5],[1,0.5]];portConstraint=eastwest;whiteSpace=wrap;html=1;fontFamily=Lucida Console;fontSize=12;labelBorderColor=none;fontColor=#143642;labelBackgroundColor=none;" vertex="1" parent="tmJ_A6NvHQKnJ2QSPhdl-56">
          <mxGeometry y="78" width="240" height="26" as="geometry" />
        </mxCell>
        <mxCell id="tmJ_A6NvHQKnJ2QSPhdl-92" value="+&amp;nbsp;&lt;span style=&quot;background-color: rgb(255, 255, 255); font-size: 12px; white-space: pre;&quot;&gt;protein&lt;/span&gt;&lt;span style=&quot;background-color: initial; font-size: 12px;&quot;&gt;:&amp;nbsp;&lt;/span&gt;number" style="text;strokeColor=none;fillColor=none;align=left;verticalAlign=top;spacingLeft=4;spacingRight=4;overflow=hidden;rotatable=0;points=[[0,0.5],[1,0.5]];portConstraint=eastwest;whiteSpace=wrap;html=1;fontFamily=Lucida Console;fontSize=12;labelBorderColor=none;fontColor=#143642;labelBackgroundColor=none;" vertex="1" parent="tmJ_A6NvHQKnJ2QSPhdl-56">
          <mxGeometry y="104" width="240" height="26" as="geometry" />
        </mxCell>
        <mxCell id="tmJ_A6NvHQKnJ2QSPhdl-94" value="+&amp;nbsp;&lt;span style=&quot;background-color: rgb(255, 255, 255); font-size: 12px; white-space: pre;&quot;&gt;carbohydrates&lt;/span&gt;&lt;span style=&quot;background-color: initial; font-size: 12px;&quot;&gt;:&amp;nbsp;&lt;/span&gt;number" style="text;strokeColor=none;fillColor=none;align=left;verticalAlign=top;spacingLeft=4;spacingRight=4;overflow=hidden;rotatable=0;points=[[0,0.5],[1,0.5]];portConstraint=eastwest;whiteSpace=wrap;html=1;fontFamily=Lucida Console;fontSize=12;labelBorderColor=none;fontColor=#143642;labelBackgroundColor=none;" vertex="1" parent="tmJ_A6NvHQKnJ2QSPhdl-56">
          <mxGeometry y="130" width="240" height="32" as="geometry" />
        </mxCell>
        <mxCell id="tmJ_A6NvHQKnJ2QSPhdl-93" value="+&amp;nbsp;&lt;span style=&quot;background-color: rgb(255, 255, 255); font-size: 12px; white-space: pre;&quot;&gt;fat&lt;/span&gt;&lt;span style=&quot;background-color: initial; font-size: 12px;&quot;&gt;:&amp;nbsp;&lt;/span&gt;number" style="text;strokeColor=none;fillColor=none;align=left;verticalAlign=top;spacingLeft=4;spacingRight=4;overflow=hidden;rotatable=0;points=[[0,0.5],[1,0.5]];portConstraint=eastwest;whiteSpace=wrap;html=1;fontFamily=Lucida Console;fontSize=12;labelBorderColor=none;fontColor=#143642;labelBackgroundColor=none;" vertex="1" parent="tmJ_A6NvHQKnJ2QSPhdl-56">
          <mxGeometry y="162" width="240" height="26" as="geometry" />
        </mxCell>
        <mxCell id="tmJ_A6NvHQKnJ2QSPhdl-95" value="" style="endArrow=open;startArrow=circlePlus;endFill=0;startFill=0;endSize=8;html=1;rounded=0;strokeColor=#A8201A;fontColor=#143642;fillColor=#FAE5C7;exitX=0;exitY=0.5;exitDx=0;exitDy=0;entryX=1.006;entryY=0.109;entryDx=0;entryDy=0;entryPerimeter=0;" edge="1" parent="WIyWlLk6GJQsqaUBKTNV-1" source="tmJ_A6NvHQKnJ2QSPhdl-64" target="tmJ_A6NvHQKnJ2QSPhdl-56">
          <mxGeometry width="160" relative="1" as="geometry">
            <mxPoint x="-960" y="770" as="sourcePoint" />
            <mxPoint x="-800" y="770" as="targetPoint" />
            <Array as="points">
              <mxPoint x="-840" y="565" />
              <mxPoint x="-840" y="700" />
            </Array>
          </mxGeometry>
        </mxCell>
      </root>
    </mxGraphModel>
  </diagram>
</mxfile>
